<?xml version="1.0" encoding="utf-8"?>
<!-- Generator: Adobe Illustrator 21.0.0, SVG Export Plug-In . SVG Version: 6.00 Build 0)  -->
<svg version="1.1" id="图层_1" xmlns="http://www.w3.org/2000/svg" xmlns:xlink="http://www.w3.org/1999/xlink" x="0px" y="0px"
	 viewBox="0 0 68 68" style="enable-background:new 0 0 68 68;" xml:space="preserve">
<style type="text/css">
	.st0{fill-rule:evenodd;clip-rule:evenodd;fill:#00BBFC;}
	.st1{fill:#FFFFFF;}
	.st2{fill-rule:evenodd;clip-rule:evenodd;fill:#FF767D;}
	.st3{fill-rule:evenodd;clip-rule:evenodd;fill:#05C0C9;}
	.st4{fill:#1CB4BC;}
	.st5{fill:#00CECE;}
	.st6{opacity:0.46;fill:#383838;}
	.st7{fill:none;stroke:#FFFFFF;stroke-miterlimit:10;}
	.st8{fill:#43BCFF;}
	.st9{fill:#FDFFFF;}
</style>
<g>
	<circle class="st8" cx="35.2" cy="33.5" r="32"/>
	<path class="st9" d="M50.4,41.6h-0.4V20.9h0.4c0.6,0,1.1-0.5,1.1-1.2c0-0.6-0.5-1.2-1.1-1.2H19.9c-0.6,0-1.1,0.5-1.1,1.2
		c0,0.6,0.5,1.2,1.1,1.2h0.4v20.8h-0.4c-0.6,0-1.1,0.5-1.1,1.2c0,0.6,0.5,1.2,1.1,1.2h13.8v2.3h-2.5c-0.6,0-1.1,0.5-1.1,1.2
		s0.5,1.2,1.1,1.2h7.1c0.6,0,1.1-0.5,1.1-1.2s-0.5-1.2-1.1-1.2h-2.5v-2.3h14.5c0.6,0,1.1-0.5,1.1-1.2C51.5,42.1,51,41.6,50.4,41.6
		L50.4,41.6z M22.4,41.6V20.9h25.5v20.8H22.4z M43,26.1l-6.5,7.1L33,29.3c-0.3-0.3-0.7-0.3-1,0l-5.5,6c-0.3,0.3-0.3,0.8,0,1.1
		c0.3,0.3,0.7,0.3,1,0l5-5.4l3.5,3.8c0.3,0.3,0.7,0.3,1,0l7-7.6c0.3-0.3,0.3-0.8,0-1.1C43.7,25.8,43.3,25.8,43,26.1L43,26.1z
		 M43,26.1"/>
</g>
</svg>
